<?xml version="1.0" encoding="utf-8"?>
<!-- Generator: Adobe Illustrator 22.1.0, SVG Export Plug-In . SVG Version: 6.00 Build 0)  -->
<!DOCTYPE svg PUBLIC "-//W3C//DTD SVG 1.1//EN" "http://www.w3.org/Graphics/SVG/1.1/DTD/svg11.dtd">
<svg version="1.1" id="Layer_1" xmlns="http://www.w3.org/2000/svg" xmlns:xlink="http://www.w3.org/1999/xlink" x="0px" y="0px"
	 viewBox="0 0 612 792" style="enable-background:new 0 0 612 792;" xml:space="preserve">
<style type="text/css">
	.st0{fill:none;}
	.st1{clip-path:url(#SVGID_1_);}
	.st2{clip-path:url(#SVGID_2_);fill:#FFE363;}
	.st3{clip-path:url(#SVGID_2_);fill:#00205C;}
	.st4{clip-path:url(#SVGID_2_);}
	.st5{clip-path:url(#SVGID_3_);}
	.st6{clip-path:url(#SVGID_5_);fill:url(#SVGID_6_);}
	.st7{clip-path:url(#SVGID_7_);}
	.st8{clip-path:url(#SVGID_9_);fill:url(#SVGID_10_);}
	.st9{clip-path:url(#SVGID_11_);}
	.st10{clip-path:url(#SVGID_13_);fill:url(#SVGID_14_);}
	.st11{clip-path:url(#SVGID_15_);}
	.st12{clip-path:url(#SVGID_17_);fill:url(#SVGID_18_);}
	.st13{fill:#00205C;}
	.st14{fill:#00A0DF;}
</style>
<g>
	<rect x="189" y="345.8" class="st0" width="220" height="100.8"/>
	<g>
		<g>
			<defs>
				<rect id="SVGID_25_" x="192.6" y="348" width="164.9" height="77.1"/>
			</defs>
			<clipPath id="SVGID_1_">
				<use xlink:href="#SVGID_25_"  style="overflow:visible;"/>
			</clipPath>
			<g class="st1">
				<defs>
					<rect id="SVGID_27_" x="199" y="357.8" width="155.9" height="66.2"/>
				</defs>
				<clipPath id="SVGID_2_">
					<use xlink:href="#SVGID_27_"  style="overflow:visible;"/>
				</clipPath>
				<path class="st2" d="M250.1,422.7l32.9,0c10.8-5.8,18.1-17.3,18.1-30.4c0-19.1-15.5-34.5-34.5-34.5c-19.1,0-34.5,15.5-34.5,34.5
					C232,405.5,239.3,416.9,250.1,422.7"/>
				<path class="st3" d="M267.1,412.3c-3.3,6.7-6,10.1-8.3,10.3c-0.8,0.1-1.6-0.2-2.1-0.7c-0.8-0.7-1.2-1.8-1.2-3.2
					c0-1,0.2-2,0.5-3.3c-1.3,2.2-2.6,3.9-4,5.2c-1.3,1.3-2.6,1.9-3.7,1.9c-0.9,0-1.7-0.4-2.2-1.3c-0.6-0.8-0.9-2-0.9-3.4
					c0-3.5,1.5-7.1,4.6-10.8c1.1-1.3,2.4-2.3,3.9-3.1c1.6-0.8,3.1-1.2,4.5-1.2c1.8,0,3.2,0.6,4.3,1.8c0.3,0.3,0.4,0.6,0.4,0.9
					c0,0.6-0.3,0.9-1,0.7c-0.4-1.3-1.2-2-2.5-2c-1.5,0-3.3,1.1-5.4,3.2c-1.5,1.6-2.9,3.3-4,5.2c-1.5,2.6-2.3,4.7-2.3,6.4
					c0,1.2,0.5,1.9,1.4,1.9c1.1,0,2.4-0.8,3.7-2.4c1.5-1.8,3.1-4.3,4.9-7.7c0.7-1.4,1.2-2.2,1.6-2.7c0.6-0.6,1.3-0.9,2.1-0.8
					c0.1,0,0.5,0.1,1.2,0.2c0.5,0.1,0.9,0.1,1.2,0.1c-0.7,0.7-1.6,2.1-2.7,4.3c-1.2,2.4-2,4.4-2.4,5.9c-0.1,0.7-0.2,1.4-0.2,1.9
					c0,1,0.3,1.4,0.8,1.4c1.7,0.1,4-3,7.1-9.2c0.2-0.4,0.4-0.5,0.7-0.5c0.2,0,0.3,0.1,0.3,0.3C267.3,411.8,267.2,412,267.1,412.3"/>
				<path class="st3" d="M281.4,412.6c-3.3,6.7-6.2,10-8.6,10c-0.8,0-1.5-0.3-2.1-0.8c-0.7-0.7-1-1.6-1-2.9c0-1,0.2-2.1,0.7-3.3
					c0.3-0.8,0.9-2.1,1.8-3.7c0.9-1.6,1.4-2.5,1.5-2.8c0.1-0.3,0.2-0.5,0.2-0.8c0-1.1-1.5-1.7-4.4-1.8l-0.7,1.8
					c-2.3,6-4.5,10.1-6.6,12.1c-0.1,0.1-0.2,0.1-0.3,0.1c-0.1,0-0.2-0.1-0.3-0.3c0-0.2,0-0.4,0.1-0.5c2-2.6,3.8-6.1,5.5-10.6
					c1.5-3.8,2.4-7,2.9-9.6c0.2-1.1,0.7-1.7,1.5-1.7c0.5,0,1,0.2,1.4,0.7c0.4,0.5,0.6,1.1,0.6,1.9c0,0.3,0,0.6-0.1,1
					c-0.3,1.3-1.3,2.5-3,3.7c2.3,0.1,4.9,0,7.6-0.2c0.1,0.1,0.1,0.3,0.1,0.5c0,0.8-0.4,2.1-1.3,3.7c-2.8,5.6-4.2,9.1-4.2,10.5
					c0,0.9,0.3,1.3,1,1.4c1.5,0,3.8-3,6.8-9.2c0.2-0.4,0.4-0.5,0.6-0.5c0.2,0,0.3,0.1,0.3,0.4C281.6,412.1,281.5,412.3,281.4,412.6"
					/>
				<g class="st4">
					<defs>
						<path id="SVGID_29_" d="M213.7,418.2c-1.9-0.8-3.3-2.1-4.2-4.1c-1.9-4.1-0.1-9,4.1-10.9c4.1-1.9,9-0.1,10.9,4.1
							c1.9,4.1,0.1,9-4.1,10.9c-0.8,0.3-1.5,0.5-2.3,0.7c0,0-0.2,0-0.2,0c1.1-0.1,2.1-0.4,3.1-0.8c4.8-2.2,6.9-7.8,4.7-12.6
							c-2.2-4.8-7.8-6.9-12.6-4.7c-4.8,2.2-6.9,7.8-4.7,12.6c1.1,2.4,3.2,4.2,5.5,5C214,418.4,213.7,418.2,213.7,418.2"/>
					</defs>
					<clipPath id="SVGID_3_">
						<use xlink:href="#SVGID_29_"  style="overflow:visible;"/>
					</clipPath>
					<g class="st5">
						<g>
							<defs>
								<rect id="SVGID_4_" x="206.3" y="398.6" width="21.6" height="20.2"/>
							</defs>
							<clipPath id="SVGID_5_">
								<use xlink:href="#SVGID_4_"  style="overflow:visible;"/>
							</clipPath>
							
								<radialGradient id="SVGID_6_" cx="0" cy="0" r="1" gradientTransform="matrix(9.4718 0 0 -9.4718 217.075 409.4202)" gradientUnits="userSpaceOnUse">
								<stop  offset="0" style="stop-color:#00A0DD"/>
								<stop  offset="0.6686" style="stop-color:#00A0DD"/>
								<stop  offset="0.6915" style="stop-color:#0090C7"/>
								<stop  offset="0.7715" style="stop-color:#006897"/>
								<stop  offset="0.8451" style="stop-color:#134D79"/>
								<stop  offset="0.9101" style="stop-color:#173966"/>
								<stop  offset="0.9639" style="stop-color:#182D5B"/>
								<stop  offset="1" style="stop-color:#192857"/>
							</radialGradient>
							<rect x="206.3" y="398.6" class="st6" width="21.6" height="20.2"/>
						</g>
					</g>
				</g>
				<g class="st4">
					<defs>
						<path id="SVGID_34_" d="M219.5,414.6c-0.4,0.6-1.3,0.8-1.9,0.3c-0.6-0.4-0.8-1.3-0.3-1.9c0.4-0.6,1.3-0.8,1.9-0.3
							c0,0-0.1-0.1-0.1-0.1c0,0-0.1-0.1-0.1-0.1c-0.7-0.5-1.7-0.3-2.2,0.4c-0.5,0.7-0.3,1.7,0.4,2.2c0.7,0.5,1.7,0.3,2.2-0.4
							C219.4,414.8,219.5,414.6,219.5,414.6"/>
					</defs>
					<clipPath id="SVGID_7_">
						<use xlink:href="#SVGID_34_"  style="overflow:visible;"/>
					</clipPath>
					<g class="st7">
						<g>
							<defs>
								<rect id="SVGID_8_" x="216.2" y="412.1" width="3.3" height="3.6"/>
							</defs>
							<clipPath id="SVGID_9_">
								<use xlink:href="#SVGID_8_"  style="overflow:visible;"/>
							</clipPath>
							
								<radialGradient id="SVGID_10_" cx="0" cy="0" r="1" gradientTransform="matrix(1.5644 0 0 -1.5644 217.9811 413.8779)" gradientUnits="userSpaceOnUse">
								<stop  offset="0" style="stop-color:#00A0DD"/>
								<stop  offset="0.6686" style="stop-color:#00A0DD"/>
								<stop  offset="0.6915" style="stop-color:#0090C7"/>
								<stop  offset="0.7715" style="stop-color:#006897"/>
								<stop  offset="0.8451" style="stop-color:#134D79"/>
								<stop  offset="0.9101" style="stop-color:#173966"/>
								<stop  offset="0.9639" style="stop-color:#182D5B"/>
								<stop  offset="1" style="stop-color:#192857"/>
							</radialGradient>
							<rect x="216.2" y="412.1" class="st8" width="3.3" height="3.6"/>
						</g>
					</g>
				</g>
				<g class="st4">
					<defs>
						<path id="SVGID_39_" d="M216.1,420.2c-1.2,0-2.1-0.3-3.2-0.6c0,0-0.5-0.2-0.5-0.2c1.8,1,4.5,1,6,1l0.7,0.1c0,0-2,0-2.3,0
							c-7.6,0-13.5-6.1-13.5-13.7c0-7.6,6.1-13.7,13.7-13.7c6.6,0,12.1,4.7,13.4,10.9l0.1,0.3c-1.5-5.6-6.6-9.7-12.7-9.7
							c-7.3,0-13.2,5.9-13.2,13.2l0,0.3c0,4.3,2.7,7.1,2.7,7.1c-1.4-2.4-2.4-3.7-2.4-7.3c0-6.3,6.5-11.7,12.8-11.7
							c3.5,0,6.7,1.7,9,4.3l-0.1,0c-2-1.8-4.7-2.9-7.6-2.9c-6.4,0-11.5,5.2-11.5,11.5C207.6,414.4,211.2,418.9,216.1,420.2"/>
					</defs>
					<use xlink:href="#SVGID_39_"  style="overflow:visible;fill:#00205C;"/>
					<clipPath id="SVGID_11_">
						<use xlink:href="#SVGID_39_"  style="overflow:visible;"/>
					</clipPath>
					<g class="st9">
						<g>
							<defs>
								<rect id="SVGID_12_" x="203.3" y="393.2" width="27.2" height="27.5"/>
							</defs>
							<clipPath id="SVGID_13_">
								<use xlink:href="#SVGID_12_"  style="overflow:visible;"/>
							</clipPath>
							
								<radialGradient id="SVGID_14_" cx="0" cy="0" r="1" gradientTransform="matrix(13.6703 0 0 -13.6703 216.9485 406.9095)" gradientUnits="userSpaceOnUse">
								<stop  offset="0" style="stop-color:#00A0DD"/>
								<stop  offset="0.6686" style="stop-color:#00A0DD"/>
								<stop  offset="0.6915" style="stop-color:#0090C7"/>
								<stop  offset="0.7715" style="stop-color:#006897"/>
								<stop  offset="0.8451" style="stop-color:#134D79"/>
								<stop  offset="0.9101" style="stop-color:#173966"/>
								<stop  offset="0.9639" style="stop-color:#182D5B"/>
								<stop  offset="1" style="stop-color:#192857"/>
							</radialGradient>
							<rect x="203.3" y="393.2" class="st10" width="27.2" height="27.5"/>
						</g>
					</g>
				</g>
				<g class="st4">
					<defs>
						<path id="SVGID_44_" d="M219.5,414.6c-0.6,0.6-1.4,0.9-2.2,0.9c-1.8,0-3.2-1.4-3.2-3.2c0-1.8,1.4-3.2,3.2-3.2
							c1.4,0,2.7,0.9,3.1,2.2l0,0c-0.2-2.5-2.4-4.5-5-4.5c-2.7,0-5,2.2-5,5c0,2.7,2.2,5,5,5C217.1,416.8,218.6,415.9,219.5,414.6"/>
					</defs>
					<clipPath id="SVGID_15_">
						<use xlink:href="#SVGID_44_"  style="overflow:visible;"/>
					</clipPath>
					<g class="st11">
						<g>
							<defs>
								<rect id="SVGID_16_" x="210.4" y="406.9" width="9.9" height="9.9"/>
							</defs>
							<clipPath id="SVGID_17_">
								<use xlink:href="#SVGID_16_"  style="overflow:visible;"/>
							</clipPath>
							
								<radialGradient id="SVGID_18_" cx="0" cy="0" r="1" gradientTransform="matrix(4.9697 0 0 -4.9697 215.3752 411.8527)" gradientUnits="userSpaceOnUse">
								<stop  offset="0" style="stop-color:#00A0DD"/>
								<stop  offset="0.6686" style="stop-color:#00A0DD"/>
								<stop  offset="0.6915" style="stop-color:#0090C7"/>
								<stop  offset="0.7715" style="stop-color:#006897"/>
								<stop  offset="0.8451" style="stop-color:#134D79"/>
								<stop  offset="0.9101" style="stop-color:#173966"/>
								<stop  offset="0.9639" style="stop-color:#182D5B"/>
								<stop  offset="1" style="stop-color:#192857"/>
							</radialGradient>
							<rect x="210.4" y="406.9" class="st12" width="9.9" height="9.9"/>
						</g>
					</g>
				</g>
				<path class="st3" d="M292.4,419.5"/>
				<path class="st3" d="M228.3,389.5c-2.1,0-4-0.6-5.6-1.7c-2.5-1.6-3.8-3.9-3.8-6.8c0-3.2,1.4-6,4.2-8.5c3-2.7,6.8-4.1,11.3-4.1
					c2.8,0,5.6,0.6,8.6,1.7c5.9,2.2,11.2,5,15.8,8.4c0.4-0.4,0.9-0.9,1.3-1.3c0.8-0.6,1.5-0.9,2.3-0.9c0.4,0,0.7,0.1,1.1,0.2
					c0.6,0.2,0.9,0.5,1,1.1c0.2,0.6,0.1,0.8-0.3,0.8c-0.2,0-0.4-0.2-0.7-0.5c-0.2-0.1-0.4-0.1-0.7-0.1c-0.6,0-1.5,0.5-2.7,1.6
					c7.7,4.8,13.2,7.2,16.3,7.2c1.4,0,2.4-0.4,2.9-1.3c0.4-0.6,0.7-1,1-1c0.2,0,0.4,0.2,0.4,0.6c0,0.2-0.1,0.5-0.2,0.8
					c-0.6,1.8-2.1,2.7-4.7,2.7c-1,0-2.1-0.2-3.2-0.5c-2.8-1-5.7-2.5-8.7-4.5c-1.6-1-3.1-2-4.6-3c-1.7,1.7-3.3,4.2-4.9,7.6
					c-1.1,2.5-2.2,5.1-3.3,7.6c1.5,0.6,3.5,0.9,6,0.9c0.3,0,0.7,0,1.2-0.1c0.5-0.1,0.9-0.1,1.2-0.1c0.5,0,0.7,0.1,0.7,0.4
					c0,0.3-0.4,0.5-1.3,0.8c-0.9,0.2-2.4,0.3-4.6,0.3c-2.1,0-3.4-0.1-4-0.2c-2.9,7.8-6,13.5-9.3,17.3c-5.2,5.9-12.1,8.9-20.6,8.9
					c-5.8,0-10.5-1.6-14.2-4.8c-3.7-3.2-5.5-7.4-5.5-12.4c0-2.1,0.4-4.2,1.1-6.3c0.4-1.3,1.3-2.6,2.7-4.1c1.6-1.6,3-2.3,4.3-2.3
					c0.1,0,0.1,0,0.1,0.1c0,0.1-0.7,0.7-2.1,1.7c-2.6,1.8-4.1,4.1-4.6,6.9c-0.2,1-0.2,1.9-0.2,2.9c0,4.6,2,8.4,5.9,11.4
					c3.4,2.6,7.4,4,11.8,4.2c6.2,0.3,11.9-1.9,17.1-6.6c4.4-4.1,8.2-9.7,11.4-16.9c-0.2,0-0.6,0-1.4-0.1c-0.8,0-1.4,0-2,0
					c-4.9,0-8.2,1.1-9.7,3.2c-0.2,0.3-0.5,0.4-0.7,0.4c-0.2,0-0.4-0.2-0.4-0.6c0-0.1,0-0.2,0.1-0.4c1.6-3.6,4.8-5.4,9.4-5.4
					c1.5,0,3.3,0.2,5.4,0.6c1.2-3.1,2.9-6.4,5.1-9.9c1.8-3,3.1-4.9,3.8-5.6c-6.2-3.7-11.6-6.1-16.1-7.2c-1.8-0.4-3.6-0.7-5.4-0.7
					c-4.4,0-8.1,1.3-11.1,3.9c-2.6,2.3-3.9,4.8-3.9,7.4c0,1.6,0.6,2.8,1.7,3.6c1.6,1.1,3.2,1.7,5.1,1.7"/>
				<path class="st3" d="M227.4,388.4l-1.2-1.9l1.6-0.3l2.6,1.1c5.5-1.9,6.8-2.1,6.7-2.8c-0.1-0.9-1.6-2.1-5-5.2
					c1.5-0.4,1.7-0.5,2-0.4c0.3,0.1,2.1,1.2,2.8,1.5c1.9-0.6,2.3-0.7,2.3-0.4c0,0.3-0.4,0.5-1.4,0.8l1.7,0.8c2-0.6,2.3-0.7,2.3-0.4
					c0,0.3-0.3,0.4-1.4,0.8l2.6,1.1c4.7-1.3,6.5-1.7,6.5-1.2c0,0.4-1.7,1.2-6.4,2.7l-2.2,2.5c1.1-0.3,1.4-0.4,1.4-0.1
					c0,0.3-0.2,0.4-2.3,1l-1.4,1.8c1-0.3,1.4-0.4,1.4-0.1c0,0.3-0.4,0.5-2.3,1c-0.6,0.7-1.4,1.6-1.7,1.9c-0.2,0.2-0.5,0.3-2,0.7
					c2.5-4.8,3.1-5.7,3-6.6c-0.1-0.6-1.3-0.1-6.9,1.3l-2.2,2.6l-1.6,0.6l0.8-2.5l-1,0.1"/>
			</g>
		</g>
		<g>
			<path class="st13" d="M281.2,405.4h2.3v6.8h3.4v-6.8h2.3v17.3H287v-8.6h-3.4v8.6h-2.3V405.4z"/>
			<path class="st13" d="M306.8,414.5c0,3.1-0.3,5.2-1,6.5c-0.7,1.3-1.8,1.9-3.4,1.9c-1.7,0-2.9-0.7-3.6-2.1c-0.7-1.4-1-3.8-1-7.2
				c0-3.1,0.3-5.3,1-6.5c0.7-1.3,1.8-1.9,3.5-1.9c1.5,0,2.5,0.5,3.2,1.5c0.5,0.7,0.8,1.6,1,2.8C306.7,410.6,306.8,412.3,306.8,414.5
				z M304.4,414.7c0-3-0.1-5-0.4-6c-0.3-1-0.8-1.5-1.7-1.5s-1.4,0.5-1.7,1.4c-0.3,0.9-0.4,2.7-0.4,5.5c0,2.5,0.1,4.3,0.4,5.3
				c0.3,0.9,0.8,1.4,1.6,1.4c0.8,0,1.3-0.4,1.6-1.3C304.2,418.7,304.4,417.1,304.4,414.7z"/>
			<path class="st13" d="M315.3,405.4h3.1c1.3,0,2.2,0.3,2.8,0.9c0.8,0.8,1.2,2,1.2,3.6c0,1.2-0.2,2.2-0.6,3c-0.4,0.8-1,1.2-1.8,1.4
				l3.2,8.4h-2.4l-3.2-8.5v8.5h-2.3V405.4z M317.6,413.1c0.9,0,1.5-0.2,1.9-0.6c0.4-0.4,0.6-1.1,0.6-2.1c0-0.5,0-1-0.1-1.4
				c-0.1-0.4-0.2-0.7-0.4-0.9c-0.2-0.2-0.4-0.4-0.7-0.5s-0.6-0.2-0.9-0.2h-0.4V413.1z"/>
			<path class="st13" d="M331.1,405.4h2.3v17.3h-2.3V405.4z"/>
			<path class="st13" d="M341.9,405.4h7.6l-5.2,15.3h4.9v2h-8l5.3-15.4h-4.6V405.4z"/>
			<path class="st13" d="M365.8,414.5c0,3.1-0.3,5.2-1,6.5c-0.7,1.3-1.8,1.9-3.4,1.9c-1.7,0-2.9-0.7-3.6-2.1c-0.7-1.4-1-3.8-1-7.2
				c0-3.1,0.3-5.3,1-6.5c0.7-1.3,1.8-1.9,3.5-1.9c1.5,0,2.5,0.5,3.2,1.5c0.5,0.7,0.8,1.6,1,2.8C365.7,410.6,365.8,412.3,365.8,414.5
				z M363.4,414.7c0-3-0.1-5-0.4-6c-0.3-1-0.8-1.5-1.7-1.5c-0.8,0-1.4,0.5-1.7,1.4c-0.3,0.9-0.4,2.7-0.4,5.5c0,2.5,0.1,4.3,0.4,5.3
				c0.3,0.9,0.8,1.4,1.6,1.4c0.8,0,1.3-0.4,1.6-1.3C363.2,418.7,363.4,417.1,363.4,414.7z"/>
			<path class="st13" d="M374.3,405.4h2.2l2.3,6.9c0.7,2,1.3,4,1.8,6.3c-0.2-1.3-0.3-2.6-0.4-3.6c-0.1-1.1-0.1-2.1-0.1-3.1v-6.5h2.3
				v17.3h-2.2l-2.6-7.8c-0.2-0.7-0.5-1.5-0.7-2.2c-0.2-0.8-0.4-1.6-0.6-2.4c0-0.1,0-0.2-0.1-0.4c0-0.2-0.1-0.3-0.1-0.5
				c0,0.2,0,0.4,0.1,0.5c0,0.1,0,0.3,0,0.4l0.1,1.8l0.1,2.1c0,0.1,0,0.3,0,0.4c0,0.2,0,0.4,0,0.6l0.1,7.6h-2.3V405.4z"/>
			<path class="st13" d="M397,405.8v2.3c-0.7-0.5-1.4-0.8-1.9-0.8c-0.6,0-1.1,0.2-1.5,0.7c-0.4,0.4-0.6,1-0.6,1.7
				c0,0.6,0.1,1.1,0.4,1.6c0.1,0.2,0.4,0.5,0.7,0.9c0.3,0.4,0.7,0.8,1.3,1.3c1,1,1.6,1.8,1.9,2.5c0.3,0.7,0.5,1.5,0.5,2.5
				c0,1.3-0.4,2.4-1.1,3.3c-0.8,0.8-1.7,1.3-2.9,1.3c-1,0-1.8-0.3-2.5-0.8v-2.3c0.8,0.6,1.6,0.9,2.3,0.9c0.6,0,1.1-0.2,1.5-0.6
				c0.4-0.4,0.5-1,0.5-1.7c0-0.6-0.1-1.2-0.4-1.7c-0.1-0.2-0.3-0.5-0.6-0.8c-0.3-0.3-0.6-0.7-1-1c-0.6-0.6-1.1-1.1-1.5-1.5
				s-0.7-0.8-0.9-1.2c-0.4-0.7-0.5-1.5-0.5-2.5c0-1.4,0.4-2.4,1.1-3.2c0.7-0.8,1.7-1.2,2.9-1.2C395.5,405.2,396.3,405.4,397,405.8z"
				/>
		</g>
		<g>
			<path class="st14" d="M286,433.2c0,0.1,0,0.1,0,0.2l-0.1,0.2l-0.2,0.6l-0.2,0l-0.1,0.2c0,0-0.1,0.1-0.1,0.1l-0.9,0.2l-0.1,0.1
				l-0.3,0l-0.4,0.1l-0.5,0h-0.1c-0.1-0.1-0.1-0.1-0.1-0.1l-0.5-0.2l-0.2-0.2l-0.3-0.3l-0.3-0.5l-0.1-0.1c0-0.1,0.1-0.2,0.1-0.3
				c0,0,0-0.1,0-0.1l-0.1-0.3l0-0.4l0-0.3c0-0.1,0-0.3,0.1-0.4c0.1-0.3,0.1-0.5,0.1-0.5l0.2-0.3l0.1-0.3l0.2-0.3l0.2-0.5l0.2-0.2
				l0.3-0.3l0.2-0.2l0.1-0.1l0.1,0l0.4-0.2l0.3-0.1l0.2-0.1l0.1,0c0.2,0,0.3,0.1,0.4,0.4c0.1,0,0.1-0.1,0.1-0.1l0.1,0.2l0.2,0.1
				l0.4,0.6c0.1,0.1,0.1,0.2,0.1,0.2s0.1,0.1,0.1,0.2c0,0.1,0.1,0.2,0.1,0.2c0,0.1,0.1,0.2,0.1,0.4l0,0.2l0,0l-0.2-0.1l-0.2,0.1
				l-0.2,0l-0.2,0.1l-0.3-0.1l-0.3,0l-0.3-0.1l-0.6,0l-0.3,0l-0.7,0.1l-0.2,0l-0.3,0.1l-0.1,0l0,0.2c0,0.1,0,0.2,0,0.2
				c0,0-0.1,0.1-0.1,0.1l0,0.1c0.1,0.1,0.2,0.2,0.2,0.2l0.1,0.7l0.1,0.2c0,0,0,0.1,0,0.1c0,0,0,0,0,0l0.2,0.1l0,0.2
				c0,0.2,0.1,0.3,0.1,0.3l0.3,0.2l0.1,0.3c0,0,0.1,0.1,0.2,0.1l0.1,0.2l0.1,0l0.4,0.2l0.3-0.1l0.9-0.2l0.2-0.2l0.3-0.3l0.3-0.5
				c0-0.1,0.1-0.1,0.2-0.1C286,433,286,433,286,433.2z M284.9,429.9c0-0.1-0.1-0.2-0.2-0.5l-0.3-0.4l-0.1-0.2l-0.2,0l-0.4,0l-0.1,0
				l-0.2,0.2l-0.3,0.1l-0.3,0.2l-0.1,0.1l-0.2,0.3c-0.1,0.1-0.1,0.2-0.2,0.2l0,0.1l0.6,0.1l0.1,0l0.1,0l0.1,0l0.3,0.1h0l0.3-0.1
				l0.1,0l0.1,0.2h0.1l0.4-0.1l0.2,0C284.8,430,284.9,430,284.9,429.9z"/>
			<path class="st14" d="M291.4,434.1c0,0,0,0.1-0.1,0.2l-0.1,0.1c-0.1,0.1-0.2,0.2-0.2,0.3c-0.1,0.1-0.2,0.1-0.2,0.1
				c0,0-0.1-0.1-0.2-0.3l-0.5-0.9c0,0-0.1-0.2-0.2-0.6h-0.1l-0.2-0.2c-0.1-0.2-0.2-0.3-0.2-0.3c0,0-0.1-0.1-0.2-0.2l-0.1-0.1
				c0-0.2-0.1-0.3-0.2-0.5l-0.1,0.1l-0.1,0.3l-0.2,0.2l-0.2,0.3c-0.1,0.2-0.2,0.3-0.2,0.3l-0.1,0.1l-0.1,0.2l-0.4,0.8
				c-0.1,0.1-0.2,0.3-0.3,0.3l0,0.3h-0.1c-0.2,0-0.3-0.1-0.3-0.3c0-0.1,0-0.2,0.1-0.3l0.7-0.9l0.1-0.1l0.3-0.6l0.5-0.8l0.2-0.3
				l-0.1-0.2l-0.2-0.4l-0.1-0.4l-0.2-0.1l-0.2-0.4l-0.2-0.3l0-0.3c0-0.1-0.1-0.1-0.1-0.1c0,0-0.1,0-0.1,0l-0.1-0.1
				c-0.2-0.2-0.3-0.3-0.3-0.4c-0.1-0.1-0.1-0.2-0.1-0.3l0.1-0.2c0.1-0.1,0.2-0.2,0.3-0.3c0.1,0,0.2-0.1,0.3-0.1l0-0.1h0l0.1,0.1
				l0.2,0.3l0.2,0.5c0.1,0.1,0.1,0.2,0.1,0.2v0.1c0.1,0.1,0.1,0.2,0.1,0.2s0.1,0,0.1,0l0.2,0.3c0.2,0.2,0.3,0.4,0.3,0.5l0,0.2l0,0
				c0,0,0,0.1,0.1,0.2c0,0.1,0.1,0.1,0.1,0.1c0.1,0,0.1-0.1,0.2-0.3l0.1-0.2c0.1,0,0.2,0,0.2-0.1c0,0,0.1-0.1,0.1-0.3l0-0.1l0.1-0.1
				c0.2-0.2,0.3-0.3,0.3-0.4l0-0.3l0.2-0.3l0.2-0.4l0.1-0.1c0.1-0.1,0.2-0.2,0.3-0.2c0.1,0,0.1,0.1,0.1,0.2c0,0.1,0,0.1,0,0.1
				l-0.2,0.5l-0.2,0.4l-0.2,0.4l-0.5,0.8l-0.4,0.7l0,0.2c0.1,0,0.1,0,0.2,0.1c0,0,0.1,0.1,0.1,0.2l0.1,0l0.1,0.1l0.3,0.5
				c0.1,0.1,0.1,0.2,0.3,0.3c0.1,0.1,0.2,0.2,0.2,0.3c0,0,0,0.1,0,0.1l0,0.1c0.1,0,0.1,0,0.2,0.1c0.1,0,0.1,0,0.2,0
				c0,0,0.1,0.1,0.1,0.2c0,0.1,0.1,0.2,0.2,0.2C291.3,433.9,291.4,434,291.4,434.1z"/>
			<path class="st14" d="M297.5,431.7l-0.1,0.4l0,0.2l-0.1,0.3l-0.1,0.3L297,433l-0.1,0.2l-0.1,0l-0.1,0l0,0.1
				c-0.1,0.2-0.1,0.4-0.2,0.4s-0.1,0.1-0.2,0.1h0l-0.1,0c0,0.2-0.1,0.3-0.1,0.4c-0.1,0.1-0.2,0.2-0.4,0.3l-0.3,0.1l-0.2,0.1l-0.4,0
				l-0.1,0l-0.1,0.1c-0.1-0.1-0.1-0.1-0.2-0.1c0,0-0.1,0-0.3,0l-0.1,0l0-0.2l-0.1,0l-0.1,0.1l-0.1,0.1h-0.1h-0.2l-0.1,0l0,0.2l0,1.1
				l-0.1,0.5l0,0.2h0.1l0,1.3l-0.1,0l0,0.1l0,0.2l0.1,0.4l0,0.2l0.1-0.1l0,0l0,0.5l0,0.5l0,0.3c0,0.1,0,0.1-0.1,0.2l0,0.1l0.2,0.1
				l0,0.1l0,0.3l0,0.2l-0.1,0.1l-0.1,0.1l-0.1,0.2l-0.1,0.1l-0.3,0.2l-0.1,0l-0.2,0l0-0.3l0-0.2l0-0.6l0-0.6c0-0.1,0-0.1,0-0.1
				c0,0,0-0.1,0.1-0.1l0-0.5c0.1-0.1,0.1-0.2,0.1-0.2c0,0,0-0.1,0-0.2c-0.1,0-0.1-0.1-0.1-0.1s0-0.1,0-0.1l0-0.3l0-0.2l0-0.8l0-0.6
				l0-0.7l0-0.2c0.1-0.1,0.1-0.2,0.1-0.3c0-0.1,0-0.2,0-0.4l-0.1,0l0-0.2V435l0.1-2.4l0.1-0.3l0-0.3l0-0.2l-0.1,0v-0.2l0-1v-0.1
				l0-0.3l0-0.6c0-0.2,0-0.3,0-0.3s-0.1-0.1-0.1-0.2c0-0.2,0-0.2,0.1-0.3l0.1-0.1l0.2-0.4l0.2-0.2l0.1-0.1c0.1,0,0.1,0.1,0.2,0.2
				l0,0.1l0,0.2l0,0.1l0.1,0l0.2-0.1c0.2-0.1,0.4-0.2,0.4-0.3c0.1,0,0.2-0.1,0.3-0.1c0.1,0,0.1,0,0.1,0c0,0,0.1,0.1,0.1,0.1l0.1-0.1
				l0-0.1l0.1,0l0.2-0.1l0.6,0l0.5,0c0.1,0,0.1,0.1,0.2,0.2c0,0,0,0,0,0s0,0,0,0c0,0,0.1,0,0.2,0.1l0.4,0.3c0.1,0,0.1,0.1,0.1,0.1
				l0.1,0.3c0,0,0,0.1,0.1,0.1c0,0,0.1,0,0.1,0c0.1,0.1,0.2,0.2,0.2,0.4c0,0.1,0.1,0.3,0.1,0.6s0.1,0.5,0.1,0.7v0l0,0.2l0,0.2
				L297.5,431.7z M296.9,431.1c-0.1-0.1-0.2-0.2-0.2-0.3l-0.1-0.3l-0.3-0.5l0-0.3l-0.1-0.1l-0.3,0l-0.4-0.4l-0.3,0l-0.3-0.1l-0.7,0
				h-0.1l-0.1,0l-0.4,0.2l-0.2,0.1l-0.2,0.1l-0.1,0c-0.1,0-0.1,0.2-0.1,0.4v0.1c-0.1,0.3-0.1,0.5-0.1,0.5s0,0,0,0.1l0,0.1l0.1,0.1
				l0,0.4l0,0.8c0,0.1,0,0.2-0.1,0.3c0.1,0.2,0.1,0.4,0.1,0.6l0,0.7l0,0.2l0.1,0.1l0.2,0.2l0.2,0.2l0.1-0.1l0.1,0.1l0.4,0l0.4,0.2
				l0.4-0.1l0.2,0l0.2-0.1l0.2-0.1l0.2-0.3l0.2-0.2l0.2-0.3l0.2-0.2c0.1-0.1,0.2-0.2,0.2-0.3l0-0.3l0.1-0.3c0,0,0,0,0,0s0,0,0,0
				l0-0.6L296.9,431.1L296.9,431.1z"/>
			<path class="st14" d="M303.3,433.2c0,0.1,0,0.1,0,0.2l-0.1,0.2l-0.2,0.6l-0.2,0l-0.1,0.2c0,0-0.1,0.1-0.1,0.1l-0.9,0.2l-0.1,0.1
				l-0.3,0l-0.4,0.1l-0.5,0H300c-0.1-0.1-0.1-0.1-0.1-0.1l-0.5-0.2l-0.2-0.2l-0.3-0.3l-0.3-0.5l-0.1-0.1c0-0.1,0.1-0.2,0.1-0.3
				c0,0,0-0.1,0-0.1l-0.1-0.3l0-0.4l0-0.3c0-0.1,0-0.3,0.1-0.4c0.1-0.3,0.1-0.5,0.1-0.5l0.2-0.3l0.1-0.3l0.2-0.3l0.2-0.5l0.2-0.2
				l0.3-0.3l0.2-0.2l0.1-0.1l0.1,0l0.4-0.2l0.3-0.1l0.2-0.1l0.1,0c0.2,0,0.3,0.1,0.4,0.4c0.1,0,0.1-0.1,0.1-0.1l0.1,0.2l0.2,0.1
				l0.4,0.6c0.1,0.1,0.1,0.2,0.1,0.2s0.1,0.1,0.1,0.2c0,0.1,0.1,0.2,0.1,0.2c0,0.1,0.1,0.2,0.1,0.4l0,0.2l0,0l-0.2-0.1l-0.2,0.1
				l-0.2,0l-0.2,0.1l-0.3-0.1l-0.3,0l-0.3-0.1l-0.6,0l-0.3,0l-0.7,0.1l-0.2,0l-0.3,0.1l-0.1,0l0,0.2c0,0.1,0,0.2,0,0.2
				c0,0-0.1,0.1-0.1,0.1l0,0.1c0.1,0.1,0.2,0.2,0.2,0.2l0.1,0.7l0.1,0.2c0,0,0,0.1,0,0.1c0,0,0,0,0,0l0.2,0.1l0,0.2
				c0,0.2,0.1,0.3,0.1,0.3l0.3,0.2l0.1,0.3c0,0,0.1,0.1,0.2,0.1l0.1,0.2l0.1,0l0.4,0.2l0.3-0.1l0.9-0.2l0.2-0.2l0.3-0.3l0.3-0.5
				c0-0.1,0.1-0.1,0.2-0.1C303.2,433,303.3,433,303.3,433.2z M302.1,429.9c0-0.1-0.1-0.2-0.2-0.5l-0.3-0.4l-0.1-0.2l-0.2,0l-0.4,0
				l-0.1,0l-0.2,0.2l-0.3,0.1l-0.3,0.2l-0.1,0.1l-0.2,0.3c-0.1,0.1-0.1,0.2-0.2,0.2l0,0.1l0.6,0.1l0.1,0l0.1,0l0.1,0l0.3,0.1h0
				l0.3-0.1l0.1,0l0.1,0.2h0.1l0.4-0.1l0.2,0C302.1,430,302.1,430,302.1,429.9z"/>
			<path class="st14" d="M307.9,428.7C307.9,428.7,307.9,428.8,307.9,428.7l-0.3,0.4l-0.1,0.2l-0.1,0l-0.1-0.1l-0.1-0.1l-0.3,0
				l-0.3-0.2l-0.1,0c0,0.1-0.1,0.2-0.1,0.2c0,0-0.1,0-0.3,0l-0.2,0.1l-0.1-0.1l-0.1,0.1l-0.4,0.4c-0.1,0.1-0.1,0.3-0.1,0.7l0,0.5
				L305,431c0.1,0.2,0.1,0.3,0.1,0.5h0.1l0,0.2l0,0.9l0,0.5l0,0.4c-0.1,0.1-0.1,0.2-0.1,0.2c0,0,0,0.1,0,0.1l0.1,0l0,0.1l0,0.3v0
				c0,0.1,0,0.1-0.1,0.2c-0.1,0.1-0.1,0.1-0.2,0.1l-0.2,0l-0.3,0.2l-0.1-0.1l0-0.1l0.1-0.4l0-0.5l0-0.1h0.1v-0.1l0-0.1l-0.1-0.2
				l0-0.3l0-0.2v0v-0.2l0-0.2c0,0,0,0,0-0.1c0,0,0-0.1,0.1-0.1s0.1-0.1,0.1-0.2l0-0.2l0-0.1c-0.2,0-0.2,0-0.2-0.1l0-0.5l0-0.5
				c0,0,0-0.1,0.1-0.1V430l-0.1-0.1l0-0.2l0-0.4l-0.1-0.3c0-0.2,0.1-0.3,0.2-0.4l0.3-0.2l0.2-0.2c0.1,0,0.2,0.1,0.2,0.1
				c0,0.1,0,0.1,0,0.3v0v0.2c0,0.2,0,0.3,0.1,0.3h0l0.2-0.2l0.2-0.1l0.4-0.3l0.1-0.1l0.1,0l0.2-0.1c0.1-0.1,0.2-0.1,0.3-0.1l0.2,0
				c0.1,0.1,0.1,0.2,0.2,0.2c0,0,0,0,0,0c0,0,0,0,0,0l0.1-0.1c0,0,0,0,0.1,0c0.1,0,0.2,0.1,0.2,0.2
				C307.9,428.6,307.9,428.6,307.9,428.7z"/>
			<path class="st14" d="M312.1,428.5l0,0.2l0,0.1l-0.4,0.4l-0.2,0.3l-0.1,0l-0.2,0c-0.1,0-0.2,0-0.3-0.1c-0.1,0-0.1-0.1-0.1-0.1h0
				l-0.3,0l-0.2,0c0,0-0.1,0-0.1,0.1c0,0,0,0.1,0,0.1c0,0.1,0,0.1,0.1,0.1l0,0.9c-0.1,0.1-0.2,0.1-0.2,0.3l0,0.2l0.2,0.1l0,0.7
				l0,0.1l0,0.2c0,0-0.1,0-0.1,0c-0.1,0-0.1,0.1-0.1,0.2c0,0,0,0.1,0.1,0.2c0-0.1,0.1-0.1,0.1-0.1c0,0,0,0,0.1,0.1l0,1l0,0.1
				l0.1,0.3c0,0,0,0.1,0,0.2c0.1,0.1,0.1,0.1,0.2,0.1c0,0,0.1,0,0.2,0c0.1,0,0.2,0,0.3-0.1c0.1-0.1,0.2-0.1,0.2-0.2l0.5-0.6
				c0,0,0,0,0.1,0c0,0,0.1,0,0.2,0.1l0,0.2c-0.1,0.4-0.1,0.6-0.2,0.6l-1.1,0.6l-0.2,0.1l-0.2-0.1l-0.1,0l0,0.2l-0.1,0
				c-0.1,0-0.2-0.1-0.3-0.2c-0.1-0.2-0.2-0.3-0.2-0.4l0-0.2l-0.1-0.2l0-0.4v-0.4l0.1-0.5l0-0.2l0-0.2V432l0-0.7l0-0.2l0-0.2
				c0,0,0,0,0,0l0.1-0.2c0,0,0-0.1,0-0.1c0-0.1-0.1-0.2-0.2-0.2l0-0.1c0-0.3,0-0.7,0-1c-0.2,0-0.3-0.1-0.3-0.1c-0.2,0-0.4,0-0.6,0.1
				c0,0,0-0.1,0-0.1c0-0.1,0-0.1,0-0.2l0.2-0.2l0-0.2c0,0,0-0.1,0-0.1s0,0,0.1,0l0.6,0l0.1,0l0-0.2l0-1.5l-0.1-0.4l0-0.2
				c0.1-0.2,0.2-0.3,0.3-0.4c0.1-0.1,0.2-0.1,0.4-0.2c0.1-0.1,0.1-0.2,0.2-0.2c0.1,0,0.1,0.2,0.1,0.6c0,0.7,0,1.1-0.1,1.4
				c0,0.2-0.1,0.3-0.1,0.3v0.3c0,0,0.1,0,0.1,0s0,0,0.1,0.1l0,0.2l0,0.2l0.1,0l0.5,0.2c0,0,0.1,0,0.2,0c0.1,0,0.1,0,0.1,0l0.2-0.1
				l0.4-0.1l0.3-0.1h0.1h0L312.1,428.5C312.1,428.5,312.1,428.5,312.1,428.5z"/>
			<path class="st14" d="M316.9,432.6c0,0.2,0,0.3-0.1,0.5c0,0.1-0.1,0.2-0.2,0.2c0,0,0,0-0.1,0l-0.1,0.2l-0.1,0.3l-0.2,0.3
				l-0.1,0.2l-0.1,0l-0.5,0.3l-0.2,0l-0.4,0.2l-0.3-0.1l-0.4,0.1c0,0-0.2,0-0.5-0.1c-0.1,0-0.2-0.1-0.3-0.1l-0.2-0.2l-0.2-0.2
				c-0.1-0.1-0.2-0.2-0.2-0.4c-0.1-0.1-0.1-0.3-0.1-0.4c0-0.1,0.1-0.2,0.2-0.3c0.1-0.1,0.2-0.2,0.4-0.3l0.1,0.2l0.1,0.6l0.2,0.2
				l0.3,0.3l0.1,0.1l0.3,0.2h0.2l0.1,0l0.2-0.1l0.4-0.1l0.2-0.1l0.2-0.1c0.1-0.1,0.2-0.3,0.3-0.6s0.2-0.6,0.2-0.9
				c0-0.1,0-0.2-0.1-0.3l-0.2-0.4l0-0.2l-0.1-0.1l-0.1,0.1l-0.1,0l-0.3-0.1H315h-0.1l-0.1-0.3c-0.1,0.1-0.1,0.2-0.2,0.2
				c0,0-0.1,0.1-0.2,0.1l-0.2,0l-0.1-0.1H314l-0.1-0.1l-0.2,0l-0.2-0.1l-0.2-0.1c-0.1,0-0.2-0.1-0.2-0.3c-0.1-0.1-0.1-0.3-0.1-0.4
				c0-0.2,0.1-0.5,0.2-0.7c0.1-0.3,0.3-0.5,0.5-0.7c0.2-0.2,0.3-0.3,0.5-0.5c0.2-0.2,0.4-0.3,0.6-0.4s0.3-0.1,0.5-0.1
				c0,0,0.2,0,0.4,0.1l0.1,0.1c0.2-0.1,0.4-0.1,0.4-0.1c0.1,0,0.2,0,0.2,0.1c0.1,0,0.1,0.1,0.1,0.2s0,0.1-0.1,0.3
				c-0.1,0.1-0.2,0.2-0.4,0.3l-0.2,0.1l-0.1,0l-0.2,0l-0.2-0.1l-0.1-0.2h-0.1l-0.1,0.1h-0.1h-0.1l-0.2,0l-0.2-0.1l-0.1,0.1l-0.3,0.3
				c-0.2,0.3-0.3,0.5-0.3,0.7c0,0.2,0,0.3,0.1,0.3l0.3,0.2l0.1,0.1v0.2l0.1,0.1l0.2-0.2l0.1,0l0.8-0.1l0.4,0.1l0.2,0l0.2,0.2
				l0.3,0.3c0.1,0.1,0.1,0.2,0.2,0.4l0,0.2C316.9,432.1,316.9,432.4,316.9,432.6z"/>
			<path class="st14" d="M321.8,428.4c-0.1,0.2-0.1,0.4-0.1,0.6l0,0.7l-0.1,0.2c0,0,0,0,0,0c0,0,0,0,0,0c0,0.1,0,0.1,0.1,0.2l0,0.2
				v1.4l0,1.1l0.1,0.5v0.2l0,0.5c0,0.1-0.1,0.2-0.3,0.4l-0.2,0.3c0,0.1-0.1,0.1-0.1,0.1c0,0-0.1,0-0.1-0.1c0,0,0-0.1,0-0.1
				c0-0.1,0-0.3,0.1-0.4l0-0.2l0-0.1l0.1-1.2l0-0.1l0.1,0v-0.2c0-0.1,0-0.3,0-0.3c0-0.1-0.1-0.2-0.1-0.3l0-0.2v0l0-0.1
				c0-0.2,0-0.3,0.1-0.4l-0.1-0.1l0-0.4c0,0,0.1-0.1,0.1-0.1l0-0.1l-0.1,0V430l0-0.2v-0.3c0-0.1,0-0.2,0-0.3s-0.1-0.1-0.1-0.2
				c0-0.2,0.1-0.3,0.3-0.4l0.5-0.4C321.7,428.2,321.7,428.3,321.8,428.4z M322.1,424.7c0,0.1,0,0.2,0,0.2l-0.4,0.4l-0.1,0.2
				l-0.3,0.3c-0.2,0.2-0.3,0.3-0.3,0.3c0,0,0,0-0.1,0c0,0,0-0.1,0-0.1c0-0.1,0-0.2,0.1-0.2l0.5-0.7l0.3-0.5c0,0,0.1,0,0.1,0
				c0.1,0,0.1,0,0.2,0.1C322.1,424.5,322.1,424.6,322.1,424.7z"/>
			<path class="st14" d="M327.6,434.2l0,0.2l-0.7,0.5c-0.1-0.2-0.1-0.3-0.1-0.3v0l0.1-0.7l0-0.3l0,0l0.1-0.1c0-0.1,0-0.1-0.1-0.1
				s-0.1-0.1-0.1-0.1l0-0.1l0.1-1.3l0-0.2l0-0.2v-0.5l0.1-0.3l-0.1-0.1l0-0.4c0-0.2-0.1-0.3-0.2-0.4v-0.1c0-0.1,0-0.1,0-0.1l-0.1,0
				l-0.2-0.2l-0.4,0l-0.5,0c0,0-0.1,0.1-0.1,0.2l-0.1,0l-0.4,0.1l-0.1,0l-0.2,0.2l-0.2,0.1c-0.1,0.1-0.2,0.2-0.2,0.3l0,0.7l-0.1,0.4
				l0.1,0.4v0.2l0,0.8l-0.1,0.3l0,0.1v0l0.1,0.2l0,0.8l0,0.2c0,0,0,0.1,0,0.1c0,0,0,0.1-0.1,0.1l-0.3,0.1l-0.1,0
				c-0.1,0.1-0.1,0.2-0.1,0.2c0,0-0.1,0-0.1-0.1c0,0,0,0,0,0s0,0,0,0c0,0,0-0.1,0,0l0.1-0.5l0-0.6l0-0.2l0-0.4l0-0.4l0-0.9
				c0-0.1,0.1-0.2,0.2-0.2c0-0.1,0-0.2,0-0.2c0,0-0.1,0-0.2,0l0-1.3l0.1-0.1l-0.1-0.1l-0.1-0.5l-0.1-0.2l0.1-0.2l0.1-0.2l0.2-0.1
				l0.2-0.2c0.1-0.1,0.1-0.1,0.2-0.1c0,0,0.1,0,0.1,0.1c0,0,0.1,0.1,0.1,0.1l0,0.7l0,0.2l0.1,0c0.1-0.2,0.3-0.4,0.4-0.6
				s0.3-0.3,0.4-0.3c0,0,0.1,0,0.1,0.1c0.1,0,0.1-0.1,0.2-0.2c0.1-0.1,0.2-0.1,0.2-0.1h0l0.4,0.1l0.1-0.1l0.5,0.1
				c0.2,0,0.3,0.1,0.4,0.2l0.1,0c0.1,0,0.2,0.1,0.3,0.2l0.1,0.2l0.1,0.2c0,0.1,0.1,0.3,0.1,0.5v0.4l0,0.2l-0.1,0.2l0,0.2l0.1,0.2
				v0.2v0.1c0,0,0,0.1,0,0.1l-0.1,0.2c0,0,0,0.1,0,0.2l0.1,0.2l0,0.2l0,0.5v0.1l0.1,0.3l0,0.6L327.6,434.2z"/>
			<path class="st14" d="M336.1,433.3C336.1,433.3,336.1,433.4,336.1,433.3l-0.1,0.4c0,0,0,0,0,0c0,0,0,0,0,0l-0.2,0.4l-0.1,0
				l-0.2,0.2l-0.1,0l-0.2,0.2h0l-0.3,0c-0.1,0-0.1,0-0.2,0.1l-0.3,0.2l-0.4,0l-0.4,0l-0.1-0.1l-0.3-0.1l-0.3-0.1l-0.4-0.1l-0.2-0.3
				l-0.2-0.3l0.1-0.2c-0.1,0-0.1,0.1-0.2,0.1h0l-0.1-0.1l-0.1-0.3l-0.1-0.1l0-0.4l0-0.2l0-0.1l-0.1-0.2l0.1-0.4l0-0.7l0.2-0.4
				l0.2-0.6l0.3-0.3l0.5-0.7l0.1-0.1l0.2-0.2l0.1,0l0.2-0.2l0.6-0.3l0.1-0.1c0,0,0,0,0,0c0,0,0,0,0,0l0.2,0.2l0.2-0.1l0.5,0.1
				l0.4-0.1c0.1,0,0.1,0,0.2,0.1c0,0.2-0.1,0.3-0.1,0.3c0,0-0.1,0.1-0.2,0.2l0,0.2l-0.2,0.2l-0.1,0.1h0l-0.1,0l-0.2,0l-0.8-0.2
				c0,0-0.1,0-0.1,0c0,0-0.1,0-0.1,0l-0.4,0.1h-0.1c-0.1,0-0.2,0.2-0.3,0.4l-0.2,0.1l-0.1,0.3l-0.2,0c0,0,0,0.1,0,0.1l-0.2,0.6
				l0,0.2l0,0.4c0,0.2,0,0.4,0,0.5c0,0.1,0.1,0.3,0.1,0.4l0,0.2c0,0.1,0,0.1,0,0.2c0,0,0,0.1,0,0.1c0.1,0,0.1,0.1,0.1,0.1
				c0,0,0.1,0.1,0.1,0.3l0.1,0.3c0,0,0,0,0,0.1s0,0.1,0,0.1h0.1l0.1,0.1l0.3,0.3l0.1,0.2l0.2,0.1l0.1,0.1l0.2,0l0.6,0.1c0,0,0,0,0,0
				c0.1,0,0.2-0.1,0.3-0.2l0.1,0l0.3-0.3c0.1,0,0.2-0.1,0.3-0.2c0.1-0.1,0.2-0.2,0.3-0.5c0-0.1,0.1-0.1,0.1-0.1c0,0,0.1,0,0.1,0
				C336,433.2,336.1,433.3,336.1,433.3z"/>
			<path class="st14" d="M340.5,428.7C340.5,428.7,340.5,428.8,340.5,428.7l-0.3,0.4l-0.1,0.2l-0.1,0l-0.1-0.1l-0.1-0.1l-0.3,0
				l-0.3-0.2l-0.1,0c0,0.1-0.1,0.2-0.1,0.2c0,0-0.1,0-0.3,0l-0.2,0.1l-0.1-0.1l-0.1,0.1l-0.4,0.4c-0.1,0.1-0.1,0.3-0.1,0.7l0,0.5
				l-0.1,0.1c0.1,0.2,0.1,0.3,0.1,0.5h0.1l0,0.2l0,0.9l0,0.5l0,0.4c-0.1,0.1-0.1,0.2-0.1,0.2c0,0,0,0.1,0,0.1l0.1,0l0,0.1l0,0.3v0
				c0,0.1,0,0.1-0.1,0.2c-0.1,0.1-0.1,0.1-0.2,0.1l-0.2,0l-0.3,0.2l-0.1-0.1l0-0.1l0.1-0.4l0-0.5l0-0.1h0.1v-0.1l0-0.1l-0.1-0.2
				l0-0.3l0-0.2v0v-0.2l0-0.2c0,0,0,0,0-0.1c0,0,0-0.1,0.1-0.1c0-0.1,0.1-0.1,0.1-0.2l0-0.2l0-0.1c-0.2,0-0.2,0-0.2-0.1l0-0.5l0-0.5
				c0,0,0-0.1,0.1-0.1V430l-0.1-0.1l0-0.2l0-0.4L337,429c0-0.2,0.1-0.3,0.2-0.4l0.3-0.2l0.2-0.2c0.1,0,0.2,0.1,0.2,0.1
				c0,0.1,0,0.1,0,0.3v0v0.2c0,0.2,0,0.3,0.1,0.3h0l0.2-0.2l0.2-0.1l0.4-0.3l0.1-0.1l0.1,0l0.2-0.1c0.1-0.1,0.2-0.1,0.3-0.1l0.2,0
				c0.1,0.1,0.1,0.2,0.2,0.2c0,0,0,0,0,0c0,0,0,0,0,0l0.1-0.1c0,0,0,0,0.1,0c0.1,0,0.2,0.1,0.2,0.2
				C340.5,428.6,340.5,428.6,340.5,428.7z"/>
			<path class="st14" d="M345.4,433.2c0,0.1,0,0.1,0,0.2l-0.1,0.2l-0.2,0.6l-0.2,0l-0.1,0.2c0,0-0.1,0.1-0.1,0.1l-0.9,0.2l-0.1,0.1
				l-0.3,0l-0.4,0.1l-0.5,0h-0.1c-0.1-0.1-0.1-0.1-0.1-0.1l-0.5-0.2l-0.2-0.2l-0.3-0.3l-0.3-0.5l-0.1-0.1c0-0.1,0.1-0.2,0.1-0.3
				c0,0,0-0.1,0-0.1l-0.1-0.3l0-0.4l0-0.3c0-0.1,0-0.3,0.1-0.4c0.1-0.3,0.1-0.5,0.1-0.5l0.2-0.3l0.1-0.3l0.2-0.3l0.2-0.5l0.2-0.2
				l0.3-0.3l0.2-0.2l0.1-0.1l0.1,0l0.4-0.2l0.3-0.1l0.2-0.1l0.1,0c0.2,0,0.3,0.1,0.4,0.4c0.1,0,0.1-0.1,0.1-0.1l0.1,0.2l0.2,0.1
				l0.4,0.6c0.1,0.1,0.1,0.2,0.1,0.2s0.1,0.1,0.1,0.2c0,0.1,0.1,0.2,0.1,0.2c0,0.1,0.1,0.2,0.1,0.4l0,0.2l0,0l-0.2-0.1l-0.2,0.1
				l-0.2,0l-0.2,0.1l-0.3-0.1l-0.3,0l-0.3-0.1l-0.6,0l-0.3,0l-0.7,0.1l-0.2,0l-0.3,0.1l-0.1,0l0,0.2c0,0.1,0,0.2,0,0.2
				c0,0-0.1,0.1-0.1,0.1l0,0.1c0.1,0.1,0.2,0.2,0.2,0.2l0.1,0.7l0.1,0.2c0,0,0,0.1,0,0.1c0,0,0,0,0,0l0.2,0.1l0,0.2
				c0,0.2,0.1,0.3,0.1,0.3l0.3,0.2l0.1,0.3c0,0,0.1,0.1,0.2,0.1l0.1,0.2l0.1,0l0.4,0.2l0.3-0.1l0.9-0.2l0.2-0.2l0.3-0.3l0.3-0.5
				c0-0.1,0.1-0.1,0.2-0.1C345.3,433,345.4,433,345.4,433.2z M344.2,429.9c0-0.1-0.1-0.2-0.2-0.5l-0.3-0.4l-0.1-0.2l-0.2,0l-0.4,0
				l-0.1,0l-0.2,0.2l-0.3,0.1l-0.3,0.2l-0.1,0.1l-0.2,0.3c-0.1,0.1-0.1,0.2-0.2,0.2l0,0.1l0.6,0.1l0.1,0l0.1,0l0.1,0l0.3,0.1h0
				l0.3-0.1l0.1,0l0.1,0.2h0.1l0.4-0.1l0.2,0C344.2,430,344.2,430,344.2,429.9z"/>
			<path class="st14" d="M350.9,434.2l0,0.1l-0.1,0.2l-0.1,0.1l-0.2,0.2l-0.2,0.1c-0.1,0.1-0.2,0.1-0.2,0.1c0,0,0,0-0.1-0.1
				c0,0,0-0.1,0-0.1c0,0,0-0.2,0-0.3c0,0,0-0.1,0-0.2l-0.1,0.1l-0.4,0.2c-0.1,0.1-0.2,0.1-0.3,0.1h0h-0.2l-0.2,0.2l-0.2,0l-0.5,0.1
				l-0.2,0l-0.1,0.1l-0.1,0l-0.1,0l-0.3-0.1l-0.2,0c-0.2,0-0.3-0.1-0.4-0.2c-0.1-0.1-0.2-0.3-0.2-0.5l-0.1-0.1l0-0.2l0-0.1l-0.1-0.3
				l0.2-0.5l0.1-0.2c0-0.1,0.1-0.2,0.2-0.3l0.4-0.5l0.2-0.1l0.3-0.2c0,0,0,0,0,0c0,0,0,0,0,0c0.1-0.2,0.2-0.3,0.4-0.3l0,0h0.1
				c0-0.1,0.1-0.1,0.1-0.2c0,0,0.1-0.1,0.2-0.1l0.6-0.2l0.2,0l0.2-0.1l0.4-0.1c0.1,0,0.2-0.1,0.2-0.3c0,0,0,0,0,0l0-0.3l0-0.5
				c0-0.1,0-0.2-0.1-0.2s-0.1-0.1-0.2-0.1l-0.1-0.2c-0.1-0.2-0.1-0.3-0.2-0.3s-0.1-0.1-0.3-0.1l-0.3-0.1l-0.3,0l-0.1,0
				c0,0-0.1,0-0.1-0.1c0,0,0-0.1,0-0.1l-0.1,0.1l-0.1,0.2l-0.5,0.3c-0.1,0.1-0.2,0.2-0.2,0.2l-0.1,0.1c0,0.1-0.1,0.1-0.1,0.1l-0.1,0
				l-0.1-0.1l-0.2,0c0,0-0.1-0.1-0.1-0.1c0-0.1-0.1-0.1-0.1-0.2c0,0,0,0,0,0l0.1-0.1l0.2-0.2l0.2,0l0.3-0.2l0.3-0.2l0.1,0l0.2-0.2
				l0.2,0l0.6-0.2l0.3,0h0.2l0.2,0.1l0.6,0.2l0.1,0.1v0.1l-0.1,0.1c0,0.2,0.1,0.2,0.1,0.2c0,0,0,0,0,0c0,0,0,0,0,0l0.1-0.1h0
				c0,0,0.1,0,0.1,0.1l0.1,0.3l0.1,0.1v0.2l0,0.4c0,0.2,0.1,0.3,0.2,0.4l0.1,1l-0.1,0.3l0.1,0.3l0,0.1l0,0.7l0,0.5v0.1v0.2l-0.1,0
				c0,0.1,0,0.2,0,0.2c0,0,0,0.1,0,0.1c0,0.1,0,0.1,0.1,0.2L350.9,434.2z M350.2,432.9c0-0.1-0.1-0.1-0.1-0.2l0-0.3l0-0.7l0.1-0.2
				l-0.2-0.1l-0.1,0l-0.5,0l-0.2,0l-0.2-0.2l-0.1,0.1l-0.3,0l-0.2,0.1l-0.1-0.1l-0.1,0.1l-0.7,0.5l-0.2,0.2l-0.1,0.3l-0.2,0.1
				c0,0,0,0.1,0,0.1c0,0,0,0,0,0l0,0.1l0,0.1l0.1,0.6L347,434l0.1,0.1l0.1-0.2c0,0.1,0.1,0.1,0.1,0.1c0,0,0.1,0.1,0.1,0.1
				c0.1,0,0.1,0.1,0.2,0.1l0.1,0.2l0.3,0l0.1-0.1l0.1,0.1l0.1-0.1l0.1,0c0.1,0,0.1,0.1,0.1,0.1c0.1,0,0.2-0.1,0.4-0.2c0,0,0,0,0,0
				s0,0,0.1-0.1c0.3,0,0.5-0.1,0.6-0.3l0.1-0.2l0.2-0.3l0-0.1l0-0.1c0,0,0.1-0.1,0.1-0.1C350.1,433.1,350.2,433,350.2,432.9z"/>
			<path class="st14" d="M355.4,428.5l0,0.2l0,0.1l-0.4,0.4l-0.2,0.3l-0.1,0l-0.2,0c-0.1,0-0.2,0-0.3-0.1c-0.1,0-0.1-0.1-0.1-0.1h0
				l-0.3,0l-0.2,0c0,0-0.1,0-0.1,0.1c0,0,0,0.1,0,0.1c0,0.1,0,0.1,0.1,0.1l0,0.9c-0.1,0.1-0.2,0.1-0.2,0.3l0,0.2l0.2,0.1l0,0.7
				l0,0.1l0,0.2c0,0-0.1,0-0.1,0c-0.1,0-0.1,0.1-0.1,0.2c0,0,0,0.1,0.1,0.2c0-0.1,0.1-0.1,0.1-0.1c0,0,0,0,0.1,0.1l0,1l0,0.1
				l0.1,0.3c0,0,0,0.1,0,0.2c0.1,0.1,0.1,0.1,0.2,0.1c0,0,0.1,0,0.2,0c0.1,0,0.2,0,0.3-0.1c0.1-0.1,0.2-0.1,0.2-0.2l0.5-0.6
				c0,0,0,0,0.1,0c0,0,0.1,0,0.2,0.1l0,0.2c-0.1,0.4-0.1,0.6-0.2,0.6l-1.1,0.6l-0.2,0.1l-0.2-0.1l-0.1,0l0,0.2l-0.1,0
				c-0.1,0-0.2-0.1-0.3-0.2c-0.1-0.2-0.2-0.3-0.2-0.4l0-0.2l-0.1-0.2l0-0.4v-0.4l0.1-0.5l0-0.2l0-0.2V432l0-0.7l0-0.2l0-0.2
				c0,0,0,0,0,0l0.1-0.2c0,0,0-0.1,0-0.1c0-0.1-0.1-0.2-0.2-0.2l0-0.1c0-0.3,0-0.7,0-1c-0.2,0-0.3-0.1-0.3-0.1c-0.2,0-0.4,0-0.6,0.1
				c0,0,0-0.1,0-0.1c0-0.1,0-0.1,0-0.2l0.2-0.2l0-0.2c0,0,0-0.1,0-0.1c0,0,0,0,0.1,0l0.6,0l0.1,0l0-0.2l0-1.5l-0.1-0.4l0-0.2
				c0.1-0.2,0.2-0.3,0.3-0.4c0.1-0.1,0.2-0.1,0.4-0.2c0.1-0.1,0.1-0.2,0.2-0.2c0.1,0,0.1,0.2,0.1,0.6c0,0.7,0,1.1-0.1,1.4
				c0,0.2-0.1,0.3-0.1,0.3v0.3c0,0,0.1,0,0.1,0s0,0,0.1,0.1l0,0.2l0,0.2l0.1,0l0.5,0.2c0,0,0.1,0,0.2,0c0.1,0,0.1,0,0.1,0l0.2-0.1
				l0.4-0.1l0.3-0.1h0.1h0L355.4,428.5C355.4,428.5,355.4,428.5,355.4,428.5z"/>
			<path class="st14" d="M357.2,428.4c-0.1,0.2-0.1,0.4-0.1,0.6l0,0.7l-0.1,0.2c0,0,0,0,0,0c0,0,0,0,0,0c0,0.1,0,0.1,0.1,0.2l0,0.2
				v1.4l0,1.1l0.1,0.5v0.2l0,0.5c0,0.1-0.1,0.2-0.3,0.4l-0.2,0.3c0,0.1-0.1,0.1-0.1,0.1c0,0-0.1,0-0.1-0.1c0,0,0-0.1,0-0.1
				c0-0.1,0-0.3,0.1-0.4l0-0.2l0-0.1l0.1-1.2l0-0.1l0.1,0v-0.2c0-0.1,0-0.3,0-0.3c0-0.1-0.1-0.2-0.1-0.3l0-0.2v0l0-0.1
				c0-0.2,0-0.3,0.1-0.4l-0.1-0.1l0-0.4c0,0,0.1-0.1,0.1-0.1l0-0.1l-0.1,0V430l0-0.2v-0.3c0-0.1,0-0.2,0-0.3s-0.1-0.1-0.1-0.2
				c0-0.2,0.1-0.3,0.3-0.4l0.5-0.4C357,428.2,357.1,428.3,357.2,428.4z M357.5,424.7c0,0.1,0,0.2,0,0.2l-0.4,0.4l-0.1,0.2l-0.3,0.3
				c-0.2,0.2-0.3,0.3-0.3,0.3c0,0,0,0-0.1,0c0,0,0-0.1,0-0.1c0-0.1,0-0.2,0.1-0.2l0.5-0.7l0.3-0.5c0,0,0.1,0,0.1,0
				c0.1,0,0.1,0,0.2,0.1C357.5,424.5,357.5,424.6,357.5,424.7z"/>
			<path class="st14" d="M362.5,428.2l0,0.2l-0.2,0.8l-0.1,0.4l-0.1,0.6l-0.1,0.3l-0.1,0.5l-0.1,0.5l-0.2,0.5l-0.6,1.9l-0.2,0.3
				l0.1,0.1l-0.1,0.1l-0.3,0.2l-0.2,0.2c0,0-0.1,0-0.1,0c0,0,0,0-0.1-0.1c0-0.1,0-0.1,0-0.1l-0.1-0.3l-0.1-0.2l-0.1-0.5l-0.3-0.8
				l0-0.4l0-0.2c0-0.1-0.1-0.1-0.2-0.1c0.1-0.1,0.1-0.2,0.1-0.2c0-0.1,0-0.2-0.1-0.3c0-0.1-0.1-0.1-0.2-0.1l-0.1,0l-0.1-0.4
				l-0.1-0.3l0-0.4l-0.2-0.3l-0.4-1.3l-0.1-0.1c0.1-0.2,0.1-0.2,0.1-0.3l0.3-0.2l0.1-0.2c0,0,0,0,0,0l0.1,0l0.1,0l0,0.1l0.1,0.4
				l0.1,0.8l0.2,0.5l0.1,0.3l0.1,0.3l0,0.3l0.1,0.2l0.1,0.4l0.2,0.7l0,0.2l0.1,0.1l0.1,0.1l0.2,0.7l0.1,0.1c0,0,0,0,0,0l0.1-0.4
				l0.2-0.5l0.2-0.8l0.1-0.2c0.1,0,0.2-0.1,0.2-0.1v0l0-0.5l0-0.1l0.2-0.8l0-0.5l0.2-0.5l0.1-0.4c0-0.1,0.1-0.2,0.2-0.3
				c0.1-0.1,0.2-0.1,0.3-0.1L362.5,428.2z"/>
			<path class="st14" d="M367.8,433.2c0,0.1,0,0.1,0,0.2l-0.1,0.2l-0.2,0.6l-0.2,0l-0.1,0.2c0,0-0.1,0.1-0.1,0.1l-0.9,0.2l-0.1,0.1
				l-0.3,0l-0.4,0.1l-0.5,0h-0.1c-0.1-0.1-0.1-0.1-0.1-0.1l-0.5-0.2l-0.2-0.2l-0.3-0.3l-0.3-0.5l-0.1-0.1c0-0.1,0.1-0.2,0.1-0.3
				c0,0,0-0.1,0-0.1l-0.1-0.3l0-0.4l0-0.3c0-0.1,0-0.3,0.1-0.4c0.1-0.3,0.1-0.5,0.1-0.5l0.2-0.3l0.1-0.3l0.2-0.3l0.2-0.5l0.2-0.2
				l0.3-0.3l0.2-0.2l0.1-0.1l0.1,0l0.4-0.2l0.3-0.1l0.2-0.1l0.1,0c0.2,0,0.3,0.1,0.4,0.4c0.1,0,0.1-0.1,0.1-0.1l0.1,0.2l0.2,0.1
				l0.4,0.6c0.1,0.1,0.1,0.2,0.1,0.2s0.1,0.1,0.1,0.2c0,0.1,0.1,0.2,0.1,0.2c0,0.1,0.1,0.2,0.1,0.4l0,0.2l0,0l-0.2-0.1l-0.2,0.1
				l-0.2,0l-0.2,0.1l-0.3-0.1l-0.3,0l-0.3-0.1l-0.6,0l-0.3,0l-0.7,0.1l-0.2,0l-0.3,0.1l-0.1,0l0,0.2c0,0.1,0,0.2,0,0.2
				c0,0-0.1,0.1-0.1,0.1l0,0.1c0.1,0.1,0.2,0.2,0.2,0.2l0.1,0.7l0.1,0.2c0,0,0,0.1,0,0.1c0,0,0,0,0,0l0.2,0.1l0,0.2
				c0,0.2,0.1,0.3,0.1,0.3l0.3,0.2l0.1,0.3c0,0,0.1,0.1,0.2,0.1l0.1,0.2l0.1,0l0.4,0.2l0.3-0.1l0.9-0.2l0.2-0.2l0.3-0.3l0.3-0.5
				c0-0.1,0.1-0.1,0.2-0.1C367.8,433,367.8,433,367.8,433.2z M366.7,429.9c0-0.1-0.1-0.2-0.2-0.5l-0.3-0.4l-0.1-0.2l-0.2,0l-0.4,0
				l-0.1,0l-0.2,0.2l-0.3,0.1l-0.3,0.2l-0.1,0.1l-0.2,0.3c-0.1,0.1-0.1,0.2-0.2,0.2l0,0.1l0.6,0.1l0.1,0l0.1,0l0.1,0l0.3,0.1h0
				l0.3-0.1l0.1,0l0.1,0.2h0.1l0.4-0.1l0.2,0C366.6,430,366.7,430,366.7,429.9z"/>
			<path class="st14" d="M374.8,428.5l0,0.2l0,0.1l-0.4,0.4l-0.2,0.3l-0.1,0l-0.2,0c-0.1,0-0.2,0-0.3-0.1c-0.1,0-0.1-0.1-0.1-0.1h0
				l-0.3,0l-0.2,0c0,0-0.1,0-0.1,0.1c0,0,0,0.1,0,0.1c0,0.1,0,0.1,0.1,0.1l0,0.9c-0.1,0.1-0.2,0.1-0.2,0.3l0,0.2l0.2,0.1l0,0.7
				l0,0.1l0,0.2c0,0-0.1,0-0.1,0c-0.1,0-0.1,0.1-0.1,0.2c0,0,0,0.1,0.1,0.2c0-0.1,0.1-0.1,0.1-0.1c0,0,0,0,0.1,0.1l0,1l0,0.1
				l0.1,0.3c0,0,0,0.1,0,0.2c0.1,0.1,0.1,0.1,0.2,0.1c0,0,0.1,0,0.2,0c0.1,0,0.2,0,0.3-0.1c0.1-0.1,0.2-0.1,0.2-0.2l0.5-0.6
				c0,0,0,0,0.1,0c0,0,0.1,0,0.2,0.1l0,0.2c-0.1,0.4-0.1,0.6-0.2,0.6l-1.1,0.6l-0.2,0.1l-0.2-0.1l-0.1,0l0,0.2l-0.1,0
				c-0.1,0-0.2-0.1-0.3-0.2c-0.1-0.2-0.2-0.3-0.2-0.4l0-0.2l-0.1-0.2l0-0.4v-0.4l0.1-0.5l0-0.2l0-0.2V432l0-0.7l0-0.2l0-0.2
				c0,0,0,0,0,0l0.1-0.2c0,0,0-0.1,0-0.1c0-0.1-0.1-0.2-0.2-0.2l0-0.1c0-0.3,0-0.7,0-1c-0.2,0-0.3-0.1-0.3-0.1c-0.2,0-0.4,0-0.6,0.1
				c0,0,0-0.1,0-0.1c0-0.1,0-0.1,0-0.2l0.2-0.2l0-0.2c0,0,0-0.1,0-0.1c0,0,0,0,0.1,0l0.6,0l0.1,0l0-0.2l0-1.5l-0.1-0.4l0-0.2
				c0.1-0.2,0.2-0.3,0.3-0.4c0.1-0.1,0.2-0.1,0.4-0.2c0.1-0.1,0.1-0.2,0.2-0.2c0.1,0,0.1,0.2,0.1,0.6c0,0.7,0,1.1-0.1,1.4
				c0,0.2-0.1,0.3-0.1,0.3v0.3c0,0,0.1,0,0.1,0s0,0,0.1,0.1l0,0.2l0,0.2l0.1,0l0.5,0.2c0,0,0.1,0,0.2,0c0.1,0,0.1,0,0.1,0l0.2-0.1
				l0.4-0.1l0.3-0.1h0.1h0L374.8,428.5C374.8,428.5,374.8,428.5,374.8,428.5z"/>
			<path class="st14" d="M379.2,428.7C379.2,428.7,379.2,428.8,379.2,428.7l-0.3,0.4l-0.1,0.2l-0.1,0l-0.1-0.1l-0.1-0.1l-0.3,0
				l-0.3-0.2l-0.1,0c0,0.1-0.1,0.2-0.1,0.2c0,0-0.1,0-0.3,0l-0.2,0.1l-0.1-0.1l-0.1,0.1l-0.4,0.4c-0.1,0.1-0.1,0.3-0.1,0.7l0,0.5
				l-0.1,0.1c0.1,0.2,0.1,0.3,0.1,0.5h0.1l0,0.2l0,0.9l0,0.5l0,0.4c-0.1,0.1-0.1,0.2-0.1,0.2c0,0,0,0.1,0,0.1l0.1,0l0,0.1l0,0.3v0
				c0,0.1,0,0.1-0.1,0.2c-0.1,0.1-0.1,0.1-0.2,0.1l-0.2,0l-0.3,0.2l-0.1-0.1l0-0.1l0.1-0.4l0-0.5l0-0.1h0.1v-0.1l0-0.1l-0.1-0.2
				l0-0.3l0-0.2v0v-0.2l0-0.2c0,0,0,0,0-0.1c0,0,0-0.1,0.1-0.1c0-0.1,0.1-0.1,0.1-0.2l0-0.2l0-0.1c-0.2,0-0.2,0-0.2-0.1l0-0.5l0-0.5
				c0,0,0-0.1,0.1-0.1V430l-0.1-0.1l0-0.2l0-0.4l-0.1-0.3c0-0.2,0.1-0.3,0.2-0.4l0.3-0.2l0.2-0.2c0.1,0,0.2,0.1,0.2,0.1
				c0,0.1,0,0.1,0,0.3v0v0.2c0,0.2,0,0.3,0.1,0.3h0l0.2-0.2l0.2-0.1l0.4-0.3l0.1-0.1l0.1,0l0.2-0.1c0.1-0.1,0.2-0.1,0.3-0.1l0.2,0
				c0.1,0.1,0.1,0.2,0.2,0.2c0,0,0,0,0,0c0,0,0,0,0,0l0.1-0.1c0,0,0,0,0.1,0c0.1,0,0.2,0.1,0.2,0.2
				C379.1,428.6,379.2,428.6,379.2,428.7z"/>
			<path class="st14" d="M384.2,434.2l0,0.1l-0.1,0.2l-0.1,0.1l-0.2,0.2l-0.2,0.1c-0.1,0.1-0.2,0.1-0.2,0.1c0,0,0,0-0.1-0.1
				c0,0,0-0.1,0-0.1c0,0,0-0.2,0-0.3c0,0,0-0.1,0-0.2l-0.1,0.1l-0.4,0.2c-0.1,0.1-0.2,0.1-0.3,0.1h0h-0.2l-0.2,0.2l-0.2,0l-0.5,0.1
				l-0.2,0l-0.1,0.1l-0.1,0l-0.1,0l-0.3-0.1l-0.2,0c-0.2,0-0.3-0.1-0.4-0.2c-0.1-0.1-0.2-0.3-0.2-0.5l-0.1-0.1l0-0.2l0-0.1l-0.1-0.3
				l0.2-0.5l0.1-0.2c0-0.1,0.1-0.2,0.2-0.3l0.4-0.5l0.2-0.1l0.3-0.2c0,0,0,0,0,0c0,0,0,0,0,0c0.1-0.2,0.2-0.3,0.4-0.3l0,0h0.1
				c0-0.1,0.1-0.1,0.1-0.2c0,0,0.1-0.1,0.2-0.1l0.6-0.2l0.2,0l0.2-0.1l0.4-0.1c0.1,0,0.2-0.1,0.2-0.3c0,0,0,0,0,0l0-0.3l0-0.5
				c0-0.1,0-0.2-0.1-0.2s-0.1-0.1-0.2-0.1l-0.1-0.2c-0.1-0.2-0.1-0.3-0.2-0.3s-0.1-0.1-0.3-0.1l-0.3-0.1l-0.3,0l-0.1,0
				c0,0-0.1,0-0.1-0.1c0,0,0-0.1,0-0.1l-0.1,0.1l-0.1,0.2l-0.5,0.3c-0.1,0.1-0.2,0.2-0.2,0.2l-0.1,0.1c0,0.1-0.1,0.1-0.1,0.1l-0.1,0
				l-0.1-0.1l-0.2,0c0,0-0.1-0.1-0.1-0.1c0-0.1-0.1-0.1-0.1-0.2c0,0,0,0,0,0l0.1-0.1l0.2-0.2l0.2,0l0.3-0.2l0.3-0.2l0.1,0l0.2-0.2
				l0.2,0l0.6-0.2l0.3,0h0.2l0.2,0.1l0.6,0.2l0.1,0.1v0.1l-0.1,0.1c0,0.2,0.1,0.2,0.1,0.2c0,0,0,0,0,0c0,0,0,0,0,0l0.1-0.1h0
				c0,0,0.1,0,0.1,0.1l0.1,0.3l0.1,0.1v0.2l0,0.4c0,0.2,0.1,0.3,0.2,0.4l0.1,1l-0.1,0.3l0.1,0.3l0,0.1l0,0.7l0,0.5v0.1v0.2l-0.1,0
				c0,0.1,0,0.2,0,0.2c0,0,0,0.1,0,0.1c0,0.1,0,0.1,0.1,0.2L384.2,434.2z M383.4,432.9c0-0.1-0.1-0.1-0.1-0.2l0-0.3l0-0.7l0.1-0.2
				l-0.2-0.1l-0.1,0l-0.5,0l-0.2,0l-0.2-0.2l-0.1,0.1l-0.3,0l-0.2,0.1l-0.1-0.1l-0.1,0.1l-0.7,0.5l-0.2,0.2l-0.1,0.3l-0.2,0.1
				c0,0,0,0.1,0,0.1c0,0,0,0,0,0l0,0.1l0,0.1l0.1,0.6l-0.1,0.4l0.1,0.1l0.1-0.2c0,0.1,0.1,0.1,0.1,0.1c0,0,0.1,0.1,0.1,0.1
				c0.1,0,0.1,0.1,0.2,0.1l0.1,0.2l0.3,0l0.1-0.1l0.1,0.1l0.1-0.1l0.1,0c0.1,0,0.1,0.1,0.1,0.1c0.1,0,0.2-0.1,0.4-0.2c0,0,0,0,0,0
				s0,0,0.1-0.1c0.3,0,0.5-0.1,0.6-0.3l0.1-0.2l0.2-0.3l0-0.1l0-0.1c0,0,0.1-0.1,0.1-0.1C383.4,433.1,383.4,433,383.4,432.9z"/>
			<path class="st14" d="M389.3,428.2l0,0.2l-0.2,0.8l-0.1,0.4l-0.1,0.6l-0.1,0.3l-0.1,0.5l-0.1,0.5l-0.2,0.5l-0.6,1.9l-0.2,0.3
				l0.1,0.1l-0.1,0.1l-0.3,0.2l-0.2,0.2c0,0-0.1,0-0.1,0c0,0,0,0-0.1-0.1c0-0.1,0-0.1,0-0.1l-0.1-0.3l-0.1-0.2l-0.1-0.5l-0.3-0.8
				l0-0.4l0-0.2c0-0.1-0.1-0.1-0.2-0.1c0.1-0.1,0.1-0.2,0.1-0.2c0-0.1,0-0.2-0.1-0.3c0-0.1-0.1-0.1-0.2-0.1l-0.1,0l-0.1-0.4
				l-0.1-0.3l0-0.4l-0.2-0.3l-0.4-1.3l-0.1-0.1c0.1-0.2,0.1-0.2,0.1-0.3l0.3-0.2l0.1-0.2c0,0,0,0,0,0l0.1,0l0.1,0l0,0.1l0.1,0.4
				l0.1,0.8l0.2,0.5l0.1,0.3l0.1,0.3l0,0.3l0.1,0.2l0.1,0.4l0.2,0.7l0,0.2l0.1,0.1l0.1,0.1l0.2,0.7l0.1,0.1c0,0,0,0,0,0l0.1-0.4
				l0.2-0.5l0.2-0.8l0.1-0.2c0.1,0,0.2-0.1,0.2-0.1v0l0-0.5l0-0.1l0.2-0.8l0-0.5l0.2-0.5l0.1-0.4c0-0.1,0.1-0.2,0.2-0.3
				c0.1-0.1,0.2-0.1,0.3-0.1L389.3,428.2z"/>
			<path class="st14" d="M394.6,433.2c0,0.1,0,0.1,0,0.2l-0.1,0.2l-0.2,0.6l-0.2,0l-0.1,0.2c0,0-0.1,0.1-0.1,0.1l-0.9,0.2l-0.1,0.1
				l-0.3,0l-0.4,0.1l-0.5,0h-0.1c-0.1-0.1-0.1-0.1-0.1-0.1l-0.5-0.2l-0.2-0.2l-0.3-0.3l-0.3-0.5l-0.1-0.1c0-0.1,0.1-0.2,0.1-0.3
				c0,0,0-0.1,0-0.1l-0.1-0.3l0-0.4l0-0.3c0-0.1,0-0.3,0.1-0.4c0.1-0.3,0.1-0.5,0.1-0.5l0.2-0.3l0.1-0.3l0.2-0.3l0.2-0.5l0.2-0.2
				l0.3-0.3l0.2-0.2l0.1-0.1l0.1,0l0.4-0.2l0.3-0.1l0.2-0.1l0.1,0c0.2,0,0.3,0.1,0.4,0.4c0.1,0,0.1-0.1,0.1-0.1l0.1,0.2l0.2,0.1
				l0.4,0.6c0.1,0.1,0.1,0.2,0.1,0.2s0.1,0.1,0.1,0.2c0,0.1,0.1,0.2,0.1,0.2c0,0.1,0.1,0.2,0.1,0.4l0,0.2l0,0l-0.2-0.1l-0.2,0.1
				l-0.2,0l-0.2,0.1l-0.3-0.1l-0.3,0l-0.3-0.1l-0.6,0l-0.3,0l-0.7,0.1l-0.2,0l-0.3,0.1l-0.1,0l0,0.2c0,0.1,0,0.2,0,0.2
				c0,0-0.1,0.1-0.1,0.1l0,0.1c0.1,0.1,0.2,0.2,0.2,0.2l0.1,0.7l0.1,0.2c0,0,0,0.1,0,0.1c0,0,0,0,0,0l0.2,0.1l0,0.2
				c0,0.2,0.1,0.3,0.1,0.3l0.3,0.2l0.1,0.3c0,0,0.1,0.1,0.2,0.1l0.1,0.2l0.1,0l0.4,0.2l0.3-0.1l0.9-0.2l0.2-0.2l0.3-0.3l0.3-0.5
				c0-0.1,0.1-0.1,0.2-0.1C394.6,433,394.6,433,394.6,433.2z M393.5,429.9c0-0.1-0.1-0.2-0.2-0.5L393,429l-0.1-0.2l-0.2,0l-0.4,0
				l-0.1,0L392,429l-0.3,0.1l-0.3,0.2l-0.1,0.1l-0.2,0.3c-0.1,0.1-0.1,0.2-0.2,0.2l0,0.1l0.6,0.1l0.1,0l0.1,0l0.1,0l0.3,0.1h0
				l0.3-0.1l0.1,0l0.1,0.2h0.1l0.4-0.1l0.2,0C393.4,430,393.5,430,393.5,429.9z"/>
			<path class="st14" d="M396.7,433.4l0,0.4l0,0.3c0,0.1,0,0.1-0.1,0.2l0,0.2l-0.1,0l-0.3,0.3l-0.1,0l-0.1,0.1c0,0,0,0,0,0
				c0,0,0,0,0,0c-0.1,0-0.1,0-0.1-0.1v-0.2l0-0.3l0.1-0.8l0-1c0-0.2,0-0.4,0.1-0.6l-0.1-0.2c-0.1-0.1-0.1-0.2-0.1-0.3
				c0-0.1,0-0.2,0.1-0.4c0-0.1,0-0.1,0-0.2c0-0.1,0-0.1-0.1-0.2l0-0.1l0,0v-0.1v-0.1l0.1-0.5v-1.2l0.1-0.6c0-0.1,0-0.2-0.1-0.2v-0.3
				l0-1.3c0-0.1,0-0.3,0.1-0.5l0.1-0.2c-0.1-0.1-0.2-0.2-0.2-0.2c0,0,0-0.1,0-0.3l-0.1-0.1v-0.3l0-0.3v-0.1l0.1-0.4l-0.1-0.5l0-0.2
				l-0.1-0.8v-0.1v0l0-0.2l0-0.3l0.4-0.3l0.2-0.2l0.1,0l0.1,0.2l0,0.3l0,0.2l0,0.1v0.2l0,0.5v0l0,0.2c0,0.1,0,0.1,0,0.2l-0.1,0.4
				l0,0.1c0.1,0,0.1,0,0.1,0c0,0,0,0.1,0,0.2v0.2c0,0.1,0,0.2-0.1,0.2v0.2l0,0.1v0.1l0.1,0.2l0,1.4v1l-0.1,0.4l0.1,0.5l-0.1,0.3
				c0,0,0,0.1,0.1,0.2l0.1,0.1l0,2.3l-0.1,0.2c0,0.1,0,0.2,0,0.3c0,0.2,0,0.3,0,0.5l0,0.2h0.1v0.3L396.7,433.4z"/>
		</g>
	</g>
</g>
</svg>
